<svg version="1.0" xmlns="http://www.w3.org/2000/svg" width="933.333" height="933.333" viewBox="0 0 700 700"><path d="M333.8 7.5c-.2.1-5.2.5-11.3.9-6 .3-12.1.8-13.5 1-1.4.3-5 .7-8.1 1.1-3.1.3-6.7.8-8 1-1.3.3-4.4.8-6.9 1.1-2.5.3-4.8.8-5.1 1-.4.2-2.4.6-4.4 1-5.4.8-6.3 1-13.5 2.9-3.6.9-6.9 1.8-7.5 2-9.3 2.1-22.2 6.4-37 12.2-48.8 19.2-94.9 51-129.3 89.2-12.3 13.8-11.5 12.7-27.9 34.6-10.8 14.3-29.1 48.4-37.6 70C12.3 254.4 5 284 1.6 315.5c-1.9 17.1-1.4 59.4.8 76.1C10.8 454.8 35 512.4 73.8 561c10.6 13.3 12.9 15.7 28.2 31 47.7 47.7 108.3 80 175.5 93.5 9.3 1.8 19.9 3.7 23.5 4 3.6.3 7.2.8 8 1 7.1 2 53 2.3 70 .6 45-4.7 85.4-16.3 124.2-35.9 82.7-41.8 144.9-114.3 173.1-201.7 6.5-20.1 12.7-48.4 14.2-65.5.4-4.1.9-8.8 1.1-10.5 1-5.7 1.1-39.2.3-51-7.4-103.4-61.7-197.9-148.1-257.8-29.5-20.4-65.5-37.5-99.7-47.3-15.9-4.6-39.8-9.7-50.6-10.8-3.3-.4-7.3-.9-9-1.1-10-1.4-49.6-3-50.7-2zM331 128.9c0 71-.3 90-1.2 90.3-1.9.6-142.6.3-143.2-.3-.6-.6 7-26.1 11.4-37.9 7-19 15.4-37.3 23.8-52 1.4-2.5 3.1-5.4 3.6-6.5 3-5.7 15.7-23.5 22.6-31.7 18.6-22.2 38.3-37.2 60.3-45.9 5.7-2.3 18.2-5.8 21-5.8 1.6-.1 1.7 4.8 1.7 89.8zm42.5-87.3C420 55 460.8 99.4 488.6 167.1c6.2 15.1 15.2 42.3 16.9 50.9.3 1.3-8.3 1.5-71.9 1.5h-72.1l-.1-89.5c0-49.2.1-89.8.3-90.3.6-1.1 2.3-.9 11.8 1.9zM233 63.7c-28.6 30.6-55.5 80-70.4 129.3-6.4 21.2-6.9 23.2-6.9 24.6 0 .8-.3 1.5-.6 1.5-2.7.5-94.4.2-94.7-.3-1.3-2.1 17.1-33.8 29.4-50.7 11.4-15.6 17.1-22.2 33.6-38.6 25.2-25.2 49.7-42.8 81.1-58.4 12.5-6.3 32.6-14.9 34.8-15.1.5 0-2.4 3.5-6.3 7.7zm232-2.9c58.4 23.4 108.7 64.3 144.7 117.7 6.3 9.3 19 31.5 21.5 37.5l1.5 3.5h-47.6l-47.6-.1-1.2-3.9c-10.5-36.4-18.2-57.2-29.8-81C500 121.3 485.9 96.4 484 95c-.3-.3-2.1-2.8-4-5.5-4.9-7.2-17-22.2-22.8-28.2-5.8-5.8-5.5-5.9 7.8-.5zM148.2 249.9c.3 0 .3 1.6-.2 3.3-.8 3.2-1.6 8.3-2.6 16.3-.3 2.2-.9 6.5-1.4 9.5-.5 3-1.2 9.1-1.6 13.5-.4 4.4-.8 9.3-1 11-2.2 21.6-2.2 70.9 0 93 .2 1.6.6 6.6 1 11s1.1 10.5 1.6 13.5 1.1 7.3 1.4 9.5c.8 6.9 2.7 17.8 3.2 18.7.3.4-.1.8-.8.9-1.7.1-96.8.1-98.9 0-1.1-.1-2.5-3.1-4.7-10.4-3.1-10.1-7.5-27.9-8.6-34.7-.3-1.9-.8-4.5-1-5.8-.3-1.2-1-6.8-1.6-12.5-.6-5.6-1.3-11.6-1.5-13.2-.6-4.3-.6-41.1 0-47 2.3-22.1 4.7-36.4 8.6-51.8 2.8-11.1 7-24.1 7.9-24.7.7-.4 98-.5 100.2-.1zm182.6 99.9c.2 79.8 0 100.2-1 100.3-1.5.1-147.8.1-149.4 0-1.1-.1-3.7-11.9-4.9-22.1-.3-2.5-.7-5.6-1-7-.6-3.5-2.4-21.5-3.3-33.5-.9-13.3-.9-62.3.1-75.5 1-14 1.5-19.7 2.1-24.5.3-2.2.8-6.3 1.2-9 .3-2.8.7-6.1 1-7.5.2-1.4.7-4.1 1-6 .7-5 2.6-14.4 2.9-15 .2-.3 34.2-.5 75.7-.5l75.3.1.3 100.2zm181.6-99.7c1 1 4.8 25.4 7 45.4 2.8 24.9 2.8 86.7.1 109.1-.3 2.2-.9 7.5-1.5 11.9-.6 4.5-1.3 9.9-1.5 12-.3 2.2-1.2 7.9-2.1 12.7-1.2 6.8-2 8.8-3.3 8.9-7.7.4-148 0-148.7-.4-.7-.4-1.2-197.1-.5-199.7.1-.6 149.9-.6 150.5.1zm131.8-.2c.3.1 1.8 3.6 3.1 7.8 9.1 28.1 13.9 58.2 14.1 88.8.1 15.9-.7 33.2-1.8 39-.2 1.1-.7 4.7-1.1 8C657 407 647.8 444.4 645 449c-.6 1-11 1.3-50.6 1.3h-49.9l.1-2.9c.1-1.6.8-7.4 1.7-12.9.9-5.5 1.8-11.8 2.1-14 .5-4.6 1.7-15.6 2.1-20 2.6-25.4 2.6-77.5 0-101-.2-1.7-.6-6.2-1-10-.6-6.9-1.1-10.5-2-15.5-.2-1.4-.7-4.5-1-7-.3-2.5-.9-7.2-1.5-10.5-.5-3.4-.6-6.1-.1-6.5.7-.4 96.5-.5 99.3-.1zM155.9 484c.6 1.9 2.7 9.1 4.6 15.9 15.2 52.5 41.4 102.2 71.2 134.9 4.1 4.6 7.4 8.5 7.2 8.7-.2.2-5.6-1.8-11.9-4.4-40.5-16.6-72.6-37.8-103.6-68.6-20.1-20-31.8-34.4-45.2-55.6-6.3-10-18.2-31.9-18.2-33.5 0-.6 18.9-.9 47.4-.9l47.4-.1 1.1 3.6zM331 570.7c0 80.1-.2 90.3-1.5 90.3-2.9 0-17-4.2-24.2-7.1-22.7-9.5-46.5-29.5-65.4-54.9-13-17.6-27-42.9-36.3-65.8-6.7-16.4-18.1-51.4-17.1-52.4.2-.2 32.8-.3 72.4-.3H331v90.2zm174.4-88.1c-.9 4.7-7.9 26.7-12.6 39.4-11.8 31.6-27.6 60.7-45.6 83.4-5.8 7.4-23 24.8-29.9 30.2-13.4 10.7-34.9 21.5-47.8 24-1.1.2-3.4.6-5 1l-3 .5v-89.8c-.1-49.4.2-90 .6-90.3.4-.3 32.9-.5 72.2-.5h71.5l-.4 2.1zm125.7 1.4c-3.8 8.4-12.9 24.4-19.8 35-32.9 50.2-79.8 90.4-134.4 115-5.9 2.7-14 6-17.9 7.4l-7.2 2.6 6.5-6.7c16.5-17.1 37.6-48.7 49-73.3 9-19.5 12-26.7 17.7-43 4-11.3 10.8-33.9 11.4-37.5.1-.5.4-1.5.8-2 .4-.7 17.2-1 48.1-1l47.4-.1-1.6 3.6z"/></svg>